<svg width="343" height="36" viewBox="0 0 343 36" fill="none" xmlns="http://www.w3.org/2000/svg">
<rect width="343" height="36" fill="#D8DADF"/>
<g id="Light / Search Field">
<rect id="searchFieldBG" width="343" height="36" rx="10" fill="#424242" stroke="#757575"/>
<g id="iOS / icon / 24 / dictation-mic-filled">
<path id="icon" d="M322 18.0482C322 19.0526 322.205 19.9443 322.615 20.7233C323.03 21.5022 323.607 22.1274 324.345 22.5989C325.082 23.0652 325.941 23.3394 326.92 23.4214V25.2124H324.068C323.904 25.2124 323.765 25.2688 323.653 25.3816C323.54 25.4943 323.484 25.6327 323.484 25.7966C323.484 25.9555 323.54 26.0913 323.653 26.2041C323.765 26.3168 323.904 26.3732 324.068 26.3732H330.932C331.096 26.3732 331.235 26.3168 331.347 26.2041C331.46 26.0913 331.516 25.9555 331.516 25.7966C331.516 25.6327 331.46 25.4943 331.347 25.3816C331.235 25.2688 331.096 25.2124 330.932 25.2124H328.08V23.4214C329.059 23.3394 329.918 23.0652 330.655 22.5989C331.393 22.1274 331.967 21.5022 332.377 20.7233C332.792 19.9443 333 19.0526 333 18.0482V16.4878C333 16.3289 332.944 16.1931 332.831 16.0804C332.718 15.9676 332.582 15.9113 332.423 15.9113C332.259 15.9113 332.121 15.9676 332.008 16.0804C331.896 16.1931 331.839 16.3289 331.839 16.4878V18.0021C331.839 18.8733 331.66 19.6368 331.301 20.2928C330.942 20.9488 330.438 21.4587 329.787 21.8225C329.141 22.1812 328.38 22.3606 327.504 22.3606C326.628 22.3606 325.864 22.1812 325.213 21.8225C324.562 21.4587 324.058 20.9488 323.699 20.2928C323.34 19.6368 323.161 18.8733 323.161 18.0021V16.4878C323.161 16.3289 323.104 16.1931 322.992 16.0804C322.879 15.9676 322.741 15.9113 322.577 15.9113C322.418 15.9113 322.282 15.9676 322.169 16.0804C322.056 16.1931 322 16.3289 322 16.4878V18.0482ZM327.504 20.7079C328.011 20.7079 328.457 20.59 328.841 20.3543C329.231 20.1186 329.531 19.7932 329.741 19.3781C329.956 18.9578 330.064 18.4736 330.064 17.9252V12.7827C330.064 12.2343 329.956 11.7526 329.741 11.3375C329.531 10.9173 329.231 10.5893 328.841 10.3536C328.457 10.1179 328.011 10 327.504 10C326.991 10 326.543 10.1179 326.159 10.3536C325.774 10.5893 325.474 10.9173 325.259 11.3375C325.044 11.7526 324.936 12.2343 324.936 12.7827V17.9252C324.936 18.4736 325.044 18.9578 325.259 19.3781C325.474 19.7932 325.774 20.1186 326.159 20.3543C326.543 20.59 326.991 20.7079 327.504 20.7079Z" fill="white"/>
</g>
<g id="text with icon">
<g id="iOS / icon / 24 / search-magnifying-glass">
<path id="icon_2" d="M16.3833 22.7666C17.7612 22.7666 19.0479 22.3184 20.0938 21.5713L24.0283 25.5059C24.2109 25.6885 24.4517 25.7798 24.7007 25.7798C25.2402 25.7798 25.6304 25.3647 25.6304 24.8335C25.6304 24.5845 25.5474 24.3521 25.3647 24.1694L21.4551 20.2515C22.2769 19.1724 22.7666 17.8359 22.7666 16.3833C22.7666 12.8721 19.8945 10 16.3833 10C12.8638 10 10 12.8721 10 16.3833C10 19.8945 12.8638 22.7666 16.3833 22.7666ZM16.3833 21.3887C13.6357 21.3887 11.3779 19.1226 11.3779 16.3833C11.3779 13.644 13.6357 11.3779 16.3833 11.3779C19.1226 11.3779 21.3887 13.644 21.3887 16.3833C21.3887 19.1226 19.1226 21.3887 16.3833 21.3887Z" fill="white"/>
</g>
<path id="Placeholder Label" d="M32.9546 20.8706C33.1123 22.9375 34.8638 24.2822 37.4038 24.2822C40.1431 24.2822 41.8779 22.8794 41.8779 20.6797C41.8779 18.9199 40.8818 17.957 38.3999 17.3345L37.1465 17.0024C35.4946 16.5791 34.8389 16.0396 34.8389 15.1016C34.8389 13.8896 35.8931 13.0928 37.4868 13.0928C38.981 13.0928 39.9937 13.8232 40.2012 15.0518H41.7036C41.5791 13.1177 39.8525 11.7397 37.5366 11.7397C35.0049 11.7397 33.3032 13.1177 33.3032 15.1514C33.3032 16.853 34.2412 17.8325 36.4077 18.3804L37.9434 18.7788C39.5952 19.1938 40.3423 19.8413 40.3423 20.8623C40.3423 22.0493 39.1553 22.9209 37.5449 22.9209C35.8433 22.9209 34.6479 22.124 34.4653 20.8706H32.9546ZM49.7043 21.6841C49.3308 22.4727 48.5505 22.896 47.3967 22.896C45.8776 22.896 44.8899 21.7754 44.8151 20.0073V19.9409H51.2483V19.3931C51.2483 16.6123 49.779 14.894 47.3635 14.894C44.9065 14.894 43.3293 16.7202 43.3293 19.5342C43.3293 22.3647 44.8816 24.1577 47.3635 24.1577C49.3225 24.1577 50.717 23.2114 51.132 21.6841H49.7043ZM47.3469 16.1558C48.7663 16.1558 49.7126 17.2017 49.7458 18.7871H44.8151C44.9231 17.2017 45.9191 16.1558 47.3469 16.1558ZM55.5717 24.1577C56.767 24.1577 57.7465 23.6348 58.3276 22.6802H58.4604V24H59.8217V17.874C59.8217 16.0146 58.6015 14.894 56.4184 14.894C54.5092 14.894 53.0981 15.8403 52.9071 17.2764H54.3515C54.5507 16.5708 55.2978 16.1641 56.3686 16.1641C57.705 16.1641 58.394 16.77 58.394 17.874V18.6875L55.8124 18.8452C53.7289 18.9697 52.5502 19.8911 52.5502 21.4932C52.5502 23.1284 53.8368 24.1577 55.5717 24.1577ZM55.8373 22.9043C54.7997 22.9043 54.0278 22.373 54.0278 21.46C54.0278 20.5635 54.6254 20.0903 55.9867 19.999L58.394 19.8413V20.6631C58.394 21.9414 57.3066 22.9043 55.8373 22.9043ZM62.0533 24H63.4811V18.4551C63.4811 17.1934 64.4689 16.2803 65.8302 16.2803C66.1124 16.2803 66.6271 16.3301 66.7433 16.3633V14.9355C66.5607 14.9106 66.2618 14.894 66.0294 14.894C64.8424 14.894 63.8131 15.5083 63.5475 16.3799H63.4147V15.0518H62.0533V24ZM75.2752 17.791C75.0262 16.1973 73.6981 14.894 71.5233 14.894C69.0164 14.894 67.4227 16.7036 67.4227 19.4927C67.4227 22.3398 69.0247 24.1577 71.5316 24.1577C73.6815 24.1577 75.0179 22.9458 75.2752 21.3022H73.8309C73.5653 22.3149 72.7269 22.8711 71.5233 22.8711C69.9295 22.8711 68.9002 21.5596 68.9002 19.4927C68.9002 17.4673 69.9129 16.1807 71.5233 16.1807C72.8099 16.1807 73.5985 16.9028 73.8309 17.791H75.2752ZM77.0586 24H78.4864V18.7041C78.4864 17.1934 79.3662 16.1807 80.9683 16.1807C82.3213 16.1807 83.0352 16.9692 83.0352 18.5547V24H84.4629V18.2061C84.4629 16.106 83.2676 14.894 81.375 14.894C80.0054 14.894 79.0674 15.4751 78.6192 16.4629H78.4864V11.499H77.0586V24Z" fill="#FAFAFA"/>
</g>
</g>
</svg>
